<?xml version="1.0" encoding="UTF-8" standalone="no"?>
<!-- Creator: CorelDRAW X7 -->

<svg
   xmlns:dc="http://purl.org/dc/elements/1.1/"
   xmlns:cc="http://creativecommons.org/ns#"
   xmlns:rdf="http://www.w3.org/1999/02/22-rdf-syntax-ns#"
   xmlns:svg="http://www.w3.org/2000/svg"
   xmlns="http://www.w3.org/2000/svg"
   xmlns:sodipodi="http://sodipodi.sourceforge.net/DTD/sodipodi-0.dtd"
   xmlns:inkscape="http://www.inkscape.org/namespaces/inkscape"
   xml:space="preserve"
   width="4.2332mm"
   height="4.2332mm"
   version="1.1"
   style="shape-rendering:geometricPrecision; text-rendering:geometricPrecision; image-rendering:optimizeQuality; fill-rule:evenodd; clip-rule:evenodd"
   viewBox="0 0 423 423"
   id="svg2"
   inkscape:version="0.91 r13725"
   sodipodi:docname="13.svg"><metadata
     id="metadata28"><rdf:RDF><cc:Work
         rdf:about=""><dc:format>image/svg+xml</dc:format><dc:type
           rdf:resource="http://purl.org/dc/dcmitype/StillImage" /></cc:Work></rdf:RDF></metadata><sodipodi:namedview
     pagecolor="#ffffff"
     bordercolor="#666666"
     borderopacity="1"
     objecttolerance="10"
     gridtolerance="10"
     guidetolerance="10"
     inkscape:pageopacity="0"
     inkscape:pageshadow="2"
     inkscape:window-width="1536"
     inkscape:window-height="814"
     id="namedview26"
     showgrid="false"
     inkscape:zoom="15.733829"
     inkscape:cx="7.4997639"
     inkscape:cy="7.4997639"
     inkscape:window-x="-8"
     inkscape:window-y="-8"
     inkscape:window-maximized="1"
     inkscape:current-layer="svg2" /><defs
     id="defs4"><style
       type="text/css"
       id="style6"><![CDATA[
    .fil2 {fill:#337ab7}
    .fil0 {fill:#337ab7;fill-rule:nonzero}
    .fil1 {fill:#F2AD00;fill-rule:nonzero}
   ]]></style></defs><g
     id="Слой_x0020_1"
     style="fill:#74a3c7;fill-opacity:1"><metadata
       id="CorelCorpID_0Corel-Layer" /><path
       class="fil0"
       d="M73 130c-33,-25 -27,-57 -3,-81 68,-56 95,0 130,39 52,62 71,58 13,-11 -40,-48 -75,-107 -156,-40 -32,32 -38,76 6,107 90,82 162,125 10,-14zm255 89c19,16 38,33 58,48 34,26 17,67 -8,92 -25,24 -66,40 -91,6 -14,-19 -29,-38 -45,-57 -61,-72 -82,-70 -13,12 15,18 30,37 44,56 32,43 85,27 118,-5 33,-32 49,-85 6,-118 -20,-15 -39,-31 -58,-48 -83,-73 -86,-51 -11,14z"
       id="path10"
       style="fill:#74a3c7;fill-opacity:1" /><path
       class="fil0"
       d="M368 262c-3,1 -6,1 -9,2 -7,2 -15,5 -23,9 -21,11 -49,35 -56,57 -6,19 11,22 16,5 6,-19 30,-38 47,-47 7,-4 13,-6 19,-8 3,-1 6,-1 9,-2 16,-3 15,-20 -3,-16z"
       id="path12"
       style="fill:#74a3c7;fill-opacity:1" /><path
       class="fil1"
       d="M181 250c0,-10 4,-23 9,-33 3,-9 9,-17 16,-26 6,-7 14,-14 21,-20 7,-5 23,-11 30,-13 41,-13 27,-28 -5,-17 -9,2 -26,9 -35,16 -9,6 -18,14 -25,23 -8,9 -14,20 -19,29 -5,13 -10,28 -10,39 -2,24 17,25 18,2z"
       id="path14"
       style="fill:#74a3c7;fill-opacity:1" /><path
       class="fil1"
       d="M177 217l0 0c-7,8 -15,16 -19,24 -3,5 -4,11 -4,16 -1,5 0,11 3,16 2,4 5,7 8,11 2,3 5,7 6,10 1,3 1,5 0,8 0,4 -2,8 -4,11 -15,28 5,29 16,8 2,-4 5,-10 6,-16 1,-5 1,-10 0,-15 -2,-7 -6,-12 -10,-17 -3,-3 -5,-6 -6,-8 -1,-3 -2,-5 -1,-7 0,-3 1,-6 2,-9 3,-6 5,-14 11,-20l0 -1 -8 -11z"
       id="path16"
       style="fill:#74a3c7;fill-opacity:1" /><path
       class="fil1"
       d="M169 221l0 0c-9,5 -22,13 -28,20 -4,5 -7,9 -9,15 -1,5 -1,10 0,16 1,4 3,8 4,12 2,4 4,9 4,12 0,2 0,5 -1,7 -2,4 -5,7 -7,10 -22,23 -3,29 13,12 3,-4 7,-9 10,-14 2,-5 3,-10 3,-15 0,-7 -3,-13 -5,-19 -2,-3 -3,-7 -4,-9 0,-3 0,-5 1,-7 0,-3 2,-5 4,-8 5,-5 13,-10 20,-15l0 0 -5 -17z"
       id="path18"
       style="fill:#74a3c7;fill-opacity:1" /><path
       class="fil2"
       d="M365 377c-6,1 -19,4 -29,4 -10,-1 -17,-4 -19,-12 -3,-9 0,-23 8,-36 7,-13 20,-24 32,-30 12,-5 24,-5 30,-2 7,4 9,11 6,19 -2,8 -10,18 -17,26 -8,7 -17,13 -25,16 -8,3 -15,4 -17,0 -1,-4 3,-14 9,-23 6,-8 14,-15 20,-17 6,-3 9,-1 8,2 -1,4 -5,10 -6,12 -1,2 1,0 3,-3 2,-2 5,-6 6,-9 2,-4 2,-8 0,-9 -3,-1 -9,0 -17,4 -7,5 -17,12 -22,21 -6,8 -8,17 -8,24 0,6 2,8 8,8 7,0 18,-3 28,-9 10,-7 20,-16 27,-26 6,-9 10,-17 10,-25 0,-9 -4,-17 -13,-20 -9,-3 -23,-1 -36,6 -14,7 -27,19 -35,30 -8,10 -11,20 -13,29 -2,9 -1,17 1,22 2,6 6,8 12,9 6,1 13,0 23,-1 9,-2 21,-5 26,-7 6,-2 6,-3 0,-3z"
       id="path20"
       style="fill:#74a3c7;fill-opacity:1" /><path
       class="fil2"
       d="M318 402c-5,3 -14,6 -21,9 -7,4 -14,8 -17,10 -3,2 -3,2 -11,-10 -8,-11 -23,-35 -39,-60 -15,-26 -30,-53 -37,-67 -8,-14 -8,-14 -6,-12 2,3 7,9 15,22 8,13 20,33 34,53 14,19 30,38 39,48 8,10 9,12 10,12 2,1 4,0 12,-2 7,-3 20,-7 25,-7 5,-1 2,2 -4,4z"
       id="path22"
       style="fill:#74a3c7;fill-opacity:1" /><path
       class="fil2"
       d="M142 216c-12,-8 -35,-25 -61,-42 -25,-16 -51,-31 -65,-38 -14,-8 -16,-8 -13,-11 3,-3 11,-9 19,-13 7,-4 15,-7 18,-7 3,0 1,1 -3,4 -4,4 -9,8 -11,11 -2,3 -1,4 11,13 12,9 36,27 56,42 21,16 39,30 49,38 9,8 11,11 0,3z"
       id="path24"
       style="fill:#74a3c7;fill-opacity:1" /></g></svg>
