<?xml version="1.0" encoding="UTF-8" standalone="no"?>
<!-- Creator: CorelDRAW X7 -->

<svg
   xmlns:dc="http://purl.org/dc/elements/1.1/"
   xmlns:cc="http://creativecommons.org/ns#"
   xmlns:rdf="http://www.w3.org/1999/02/22-rdf-syntax-ns#"
   xmlns:svg="http://www.w3.org/2000/svg"
   xmlns="http://www.w3.org/2000/svg"
   xmlns:sodipodi="http://sodipodi.sourceforge.net/DTD/sodipodi-0.dtd"
   xmlns:inkscape="http://www.inkscape.org/namespaces/inkscape"
   xml:space="preserve"
   width="4.2332mm"
   height="4.2332mm"
   version="1.1"
   style="shape-rendering:geometricPrecision; text-rendering:geometricPrecision; image-rendering:optimizeQuality; fill-rule:evenodd; clip-rule:evenodd"
   viewBox="0 0 423 423"
   id="svg2"
   inkscape:version="0.91 r13725"
   sodipodi:docname="17.svg"><metadata
     id="metadata19"><rdf:RDF><cc:Work
         rdf:about=""><dc:format>image/svg+xml</dc:format><dc:type
           rdf:resource="http://purl.org/dc/dcmitype/StillImage" /></cc:Work></rdf:RDF></metadata><sodipodi:namedview
     pagecolor="#ffffff"
     bordercolor="#666666"
     borderopacity="1"
     objecttolerance="10"
     gridtolerance="10"
     guidetolerance="10"
     inkscape:pageopacity="0"
     inkscape:pageshadow="2"
     inkscape:window-width="1536"
     inkscape:window-height="814"
     id="namedview17"
     showgrid="false"
     inkscape:zoom="15.733829"
     inkscape:cx="7.4997639"
     inkscape:cy="7.4997639"
     inkscape:window-x="-8"
     inkscape:window-y="-8"
     inkscape:window-maximized="1"
     inkscape:current-layer="svg2" /><defs
     id="defs4"><style
       type="text/css"
       id="style6"><![CDATA[
    .fil1 {fill:#337ab7}
    .fil0 {fill:#337ab7;fill-rule:nonzero}
    .fil2 {fill:#F2AD00;fill-rule:nonzero}
   ]]></style></defs><g
     id="Слой_x0020_1"
     style="fill:#74a3c7;fill-opacity:1"><metadata
       id="CorelCorpID_0Corel-Layer" /><g
       id="_789867616"
       style="fill:#74a3c7;fill-opacity:1"><path
         class="fil0"
         d="M357 330c0,-3 1,-7 2,-11l4 -17c2,-10 4,-20 6,-26 3,-5 5,-8 9,-11 1,-1 3,-3 4,-5 3,-3 7,-7 10,-13 3,-5 6,-12 8,-20 2,-7 3,-16 3,-24 0,-10 -1,-19 -2,-26 -2,-10 -5,-15 -6,-17l-2 -3c-4,-10 4,-10 10,-16 11,-13 10,-29 -13,-32 15,7 -2,37 -14,25l-1 -1c-1,-1 -3,-4 -9,-9 -4,-3 -10,-7 -17,-11 -5,-3 -12,-6 -18,-9 -8,-3 -17,-5 -26,-7 -50,-10 -106,-5 -149,24l-1 1c-9,7 -11,8 -17,2l-2 -2c-1,-2 -3,-4 -7,-7 -2,-2 -6,-5 -10,-7 -5,-3 -9,-6 -13,-8l-1 -1c0,2 1,5 1,7 1,4 1,8 0,12 0,4 -1,8 -2,11 -1,4 -2,7 -5,9 -1,2 -4,3 -6,5l-1 0c-4,3 -11,7 -17,12 -3,2 -6,5 -9,8 -2,3 -5,6 -7,9 -3,4 -4,8 -6,11l-1 3c-2,3 -4,5 -7,7 -2,1 -5,2 -9,2 -3,0 -9,0 -13,-1l-2 0 0 13 1 12 0 4 4 2c2,1 4,3 6,4 2,2 5,4 7,7l4 4c5,4 10,9 17,15 5,4 11,8 18,12 5,4 11,7 18,9 10,5 20,8 28,10l11 3c6,2 10,5 12,8 3,4 3,8 3,13l-2 19 1 0c5,1 12,1 20,2 5,0 10,0 14,0l4 0c0,0 0,0 0,-2l3 -4c3,-6 6,-12 9,-16 6,-9 9,-8 20,-7l3 0c5,1 13,1 22,2 7,0 13,0 20,-1 8,0 16,-1 22,-2 7,-1 13,-2 17,-3l3 -1c11,-3 12,-3 16,4 1,2 2,4 2,7 0,2 0,4 0,7 -1,4 -1,9 -2,13l32 0c3,0 2,3 3,2zm21 -7c-1,5 -2,9 -3,12 -4,12 -6,13 -21,13l-41 -1c-5,0 -7,-1 -9,-3 -2,-2 -3,-5 -3,-9l4 -18c-5,1 -10,2 -16,3 -7,1 -15,2 -24,2 -7,1 -14,1 -21,1 -10,-1 -18,-1 -24,-2l-3 0c-2,0 -2,-2 -2,-1 -2,3 -6,9 -8,14l-3 4c-2,5 -4,7 -8,10 -3,2 -7,2 -13,2 -4,0 -10,0 -16,0 -7,-1 -14,-2 -20,-2 -6,-1 -9,-1 -12,-4 -5,-3 -6,-7 -6,-13 0,-3 1,-8 1,-12 1,-3 1,-7 1,-10 0,-1 1,0 1,-1l-13 -4c-9,-2 -20,-6 -31,-10 -7,-3 -14,-7 -20,-11 -7,-4 -14,-9 -20,-14 -8,-6 -13,-11 -18,-16l-4 -3c-2,-2 -4,-4 -6,-6 -1,-1 -2,-2 -4,-2l-2 -2c-2,-1 -4,-2 -5,-3 -2,-2 -4,-4 -5,-8 -1,-2 -1,-5 -1,-9l-1 -12 0 -14c0,-4 0,-7 0,-8 1,-5 3,-7 5,-9 2,-1 4,-2 7,-2 2,0 4,0 6,0l4 0c4,1 9,1 12,1l0 -2c2,-3 4,-7 8,-12 2,-4 5,-8 8,-12 4,-3 7,-6 11,-10 7,-6 15,-10 19,-13l1 0c1,-1 3,-2 3,-2l0 -1c1,-2 1,-5 1,-8 1,-2 1,-5 0,-8 0,-5 -2,-10 -3,-14l-1 -2c-1,-4 -2,-7 -1,-10 2,-7 6,-9 13,-8 2,1 6,2 10,4 3,1 6,3 10,5 5,3 10,6 14,9 5,3 9,6 12,9 2,1 4,3 5,4 46,-32 108,-37 163,-27 10,2 20,5 28,9 8,2 15,6 21,9 8,5 15,9 19,13 1,-1 1,-3 2,-4 2,-3 5,-5 9,-6 4,-1 8,-2 13,-1 4,1 8,3 12,6 4,3 7,7 8,12 2,4 3,9 2,14 -1,5 -3,9 -5,13 -2,3 -5,6 -6,8 2,4 6,11 8,22 1,9 2,19 2,30 0,10 -1,20 -4,29 -2,10 -6,18 -10,25 -4,7 -8,12 -12,16 -2,2 -4,4 -5,5 -2,2 -3,4 -4,5 -2,5 -4,14 -6,23l-3 17zm-277 -237l0 0 0 0z"
         id="path11"
         style="fill:#74a3c7;fill-opacity:1" /><circle
         class="fil1"
         cx="94"
         cy="178"
         r="12"
         id="circle13"
         style="fill:#74a3c7;fill-opacity:1" /><path
         class="fil2"
         d="M301 132c-6,-2 -12,-4 -19,-5 -7,-1 -15,-1 -24,-1 -8,0 -17,1 -23,2 -5,1 -8,2 -12,4 -27,11 -31,-8 -7,-18 5,-2 9,-3 15,-4 8,-2 17,-3 27,-3 9,0 19,0 27,1 8,1 16,3 22,6 25,9 20,27 -6,18z"
         id="path15"
         style="fill:#74a3c7;fill-opacity:1" /></g></g></svg>
