<?xml version="1.0" encoding="UTF-8" standalone="no"?>
<!-- Creator: CorelDRAW X7 -->

<svg
   xmlns:dc="http://purl.org/dc/elements/1.1/"
   xmlns:cc="http://creativecommons.org/ns#"
   xmlns:rdf="http://www.w3.org/1999/02/22-rdf-syntax-ns#"
   xmlns:svg="http://www.w3.org/2000/svg"
   xmlns="http://www.w3.org/2000/svg"
   xmlns:sodipodi="http://sodipodi.sourceforge.net/DTD/sodipodi-0.dtd"
   xmlns:inkscape="http://www.inkscape.org/namespaces/inkscape"
   xml:space="preserve"
   width="4.2332mm"
   height="4.2332mm"
   version="1.1"
   style="shape-rendering:geometricPrecision; text-rendering:geometricPrecision; image-rendering:optimizeQuality; fill-rule:evenodd; clip-rule:evenodd"
   viewBox="0 0 423 423"
   id="svg2"
   inkscape:version="0.91 r13725"
   sodipodi:docname="18.svg"><metadata
     id="metadata23"><rdf:RDF><cc:Work
         rdf:about=""><dc:format>image/svg+xml</dc:format><dc:type
           rdf:resource="http://purl.org/dc/dcmitype/StillImage" /></cc:Work></rdf:RDF></metadata><sodipodi:namedview
     pagecolor="#ffffff"
     bordercolor="#666666"
     borderopacity="1"
     objecttolerance="10"
     gridtolerance="10"
     guidetolerance="10"
     inkscape:pageopacity="0"
     inkscape:pageshadow="2"
     inkscape:window-width="1536"
     inkscape:window-height="814"
     id="namedview21"
     showgrid="false"
     inkscape:zoom="15.733829"
     inkscape:cx="7.4997639"
     inkscape:cy="7.4997639"
     inkscape:window-x="-8"
     inkscape:window-y="-8"
     inkscape:window-maximized="1"
     inkscape:current-layer="svg2" /><defs
     id="defs4"><style
       type="text/css"
       id="style6"><![CDATA[
    .str0 {stroke:#F2AD00;stroke-width:18.99}
    .fil1 {fill:none}
    .fil0 {fill:#337ab7;fill-rule:nonzero}
   ]]></style></defs><path
     class="fil0"
     d="m 40,219 0,173 c 0,2 1,3 2,4 1,1 2,2 4,2 l 90,0 c 22,0 23,19 0,19 l -90,0 c -7,0 -13,-3 -17,-7 -5,-5 -8,-11 -8,-18 l 0,-173 19,0 z m 250,179 93,0 c 1,0 3,-1 4,-2 1,-1 1,-2 1,-4 l 0,-179 19,0 0,179 c 0,7 -3,13 -7,18 -5,4 -11,7 -17,7 l -93,0 c -23,0 -23,-19 0,-19 z"
     id="path11"
     inkscape:connector-curvature="0"
     style="fill:#74a3c7;fill-rule:nonzero;fill-opacity:1" /><path
     class="fil0"
     d="m 291,207 112,0 0,-73 -102,0 c -43,0 -42,-19 1,-19 l 105,0 c 4,0 8,2 10,4 l 0,0 c 3,3 4,6 4,10 l 0,82 c 0,4 -1,8 -4,10 -2,3 -6,5 -10,5 l -117,0 c -26,0 -26,-19 1,-19 z m -164,-73 -101,0 0,73 111,0 c 24,0 24,19 1,19 l -117,0 c -4,0 -7,-2 -10,-5 l 0,0 C 9,219 7,215 7,211 l 0,-82 c 0,-4 2,-7 4,-10 l 0,0 c 3,-2 6,-4 10,-4 l 105,0 c 37,0 37,19 1,19 z"
     id="path13"
     inkscape:connector-curvature="0"
     style="fill:#74a3c7;fill-rule:nonzero;fill-opacity:1" /><rect
     class="fil1 str0"
     x="172"
     y="124"
     width="82.109596"
     height="287.72699"
     id="rect15"
     style="fill:none;stroke:#74a3c7;stroke-width:18.98999977;stroke-opacity:1" /><path
     class="fil1 str0"
     d="m 220,117 c 8,-24 16,-48 29,-66 12,-18 30,-31 51,-37 20,-6 42,-5 55,8 13,13 17,38 11,54 -7,15 -23,21 -43,26 -21,5 -44,8 -58,12 -14,3 -17,7 -21,10"
     id="path17"
     inkscape:connector-curvature="0"
     style="fill:none;stroke:#74a3c7;stroke-width:18.98999977;stroke-opacity:1" /><path
     class="fil1 str0"
     d="M 212,117 C 205,93 197,69 184,51 171,33 153,20 133,14 113,8 91,9 78,22 64,35 61,60 67,76 c 7,15 23,21 43,26 20,5 44,8 58,12 13,3 17,7 20,10"
     id="path19"
     inkscape:connector-curvature="0"
     style="fill:none;stroke:#74a3c7;stroke-width:18.98999977;stroke-opacity:1" /></svg>
