<?xml version="1.0" encoding="UTF-8" standalone="no"?>
<!-- Creator: CorelDRAW X7 -->

<svg
   xmlns:dc="http://purl.org/dc/elements/1.1/"
   xmlns:cc="http://creativecommons.org/ns#"
   xmlns:rdf="http://www.w3.org/1999/02/22-rdf-syntax-ns#"
   xmlns:svg="http://www.w3.org/2000/svg"
   xmlns="http://www.w3.org/2000/svg"
   xmlns:sodipodi="http://sodipodi.sourceforge.net/DTD/sodipodi-0.dtd"
   xmlns:inkscape="http://www.inkscape.org/namespaces/inkscape"
   xml:space="preserve"
   width="4.2332mm"
   height="4.2332mm"
   version="1.1"
   style="shape-rendering:geometricPrecision; text-rendering:geometricPrecision; image-rendering:optimizeQuality; fill-rule:evenodd; clip-rule:evenodd"
   viewBox="0 0 423 423"
   id="svg2"
   inkscape:version="0.91 r13725"
   sodipodi:docname="19.svg"><metadata
     id="metadata25"><rdf:RDF><cc:Work
         rdf:about=""><dc:format>image/svg+xml</dc:format><dc:type
           rdf:resource="http://purl.org/dc/dcmitype/StillImage" /></cc:Work></rdf:RDF></metadata><sodipodi:namedview
     pagecolor="#ffffff"
     bordercolor="#666666"
     borderopacity="1"
     objecttolerance="10"
     gridtolerance="10"
     guidetolerance="10"
     inkscape:pageopacity="0"
     inkscape:pageshadow="2"
     inkscape:window-width="1536"
     inkscape:window-height="814"
     id="namedview23"
     showgrid="false"
     inkscape:zoom="15.733829"
     inkscape:cx="7.4997639"
     inkscape:cy="7.4997639"
     inkscape:window-x="-8"
     inkscape:window-y="-8"
     inkscape:window-maximized="1"
     inkscape:current-layer="svg2" /><defs
     id="defs4"><style
       type="text/css"
       id="style6"><![CDATA[
    .str0 {stroke:#337ab7;stroke-width:18.99}
    .str1 {stroke:#F2AD00;stroke-width:7.62}
    .fil0 {fill:none}
    .fil1 {fill:#337ab7;fill-rule:nonzero}
    .fil2 {fill:#F2AD00;fill-rule:nonzero}
   ]]></style></defs><path
     class="fil0 str0"
     d="M 187,157 C 155,177 58,235 58,246 l 0,150 c 0,9 8,17 18,17 l 244,0 c 10,0 18,-8 18,-17 l 0,-150 c 0,-12 -101,-70 -135,-89 -3,-3 -11,-3 -16,0 z"
     id="path11"
     inkscape:connector-curvature="0"
     style="fill:none;stroke:#74a3c7;stroke-width:18.98999977;stroke-opacity:1" /><path
     class="fil1"
     d="m 354,228 c -22,-19 -100,-64 -141,-88 -11,-6 -22,-9 -36,0 -40,25 -118,72 -137,89 -11,10 -33,11 -12,-9 27,-26 100,-70 140,-94 31,-20 23,-19 54,-1 42,25 120,70 147,96 20,19 -1,17 -15,7 z"
     id="path13"
     inkscape:connector-curvature="0"
     style="fill:#74a3c7;fill-rule:nonzero;fill-opacity:1" /><path
     class="fil1"
     d="m 153,369 0,-128 c 0,-1 0,-17 20,-19 l 1,0 c 11,0 34,-2 51,1 9,2 17,5 23,8 8,4 13,10 17,16 3,5 5,11 6,16 1,7 1,13 0,19 0,5 -2,10 -5,14 -2,4 -5,7 -9,10 -4,2 -8,5 -13,7 -21,6 -37,4 -56,4 -14,-1 -19,-18 -1,-19 17,0 35,1 50,-2 3,-2 5,-3 7,-4 2,-2 4,-3 5,-5 1,-2 2,-5 2,-8 1,-4 1,-8 0,-13 0,-3 -2,-7 -4,-10 -2,-4 -5,-7 -9,-9 -5,-3 -10,-4 -17,-6 -15,-2 -36,-1 -47,0 l 0,0 c -1,0 -1,0 -1,0 l 0,129 c 0,16 -20,17 -20,-1 z"
     id="path15"
     inkscape:connector-curvature="0"
     style="fill:#74a3c7;fill-rule:nonzero;fill-opacity:1" /><path
     class="fil1"
     d="m 136,328 92,0 c 13,0 13,19 0,19 l -93,0 c -13,0 -14,-19 1,-19 z"
     id="path17"
     inkscape:connector-curvature="0"
     style="fill:#74a3c7;fill-rule:nonzero;fill-opacity:1" /><path
     class="fil2 str1"
     d="m 335,77 4,3 c 1,1 2,2 3,2 2,2 2,3 2,4 1,3 1,9 1,11 l 9,-1 c 10,-1 10,-1 10,8 l 0,8 7,-1 c 2,0 4,0 7,1 2,2 3,4 3,7 0,3 0,5 0,9 l 5,-1 c 2,-1 3,-1 5,-1 l 0,0 c 2,1 3,1 5,3 l 2,3 3,4 c 3,3 3,3 3,9 l 0,5 c 0,4 -1,11 -1,15 1,3 0,5 -1,8 -2,2 -4,2 -7,3 l -9,3 -8,2 c -5,1 -6,1 -8,1 l -4,0 c -2,-1 -3,-1 -6,-3 -1,-2 -5,-5 -11,-10 l -12,-11 c -12,-10 -27,-22 -36,-30 -11,-9 -10,-9 -11,-9 0,0 2,0 0,1 -1,1 -4,2 -7,3 -3,1 -8,2 -13,2 -5,1 -12,1 -18,-1 -5,-1 -11,-3 -16,-6 -6,-3 -11,-7 -15,-12 -5,-5 -8,-10 -11,-17 -2,-5 -3,-12 -4,-18 -1,-6 0,-12 1,-19 2,-5 5,-12 8,-17 3,-5 7,-11 11,-15 5,-4 10,-8 16,-10 5,-3 11,-4 17,-5 6,-1 13,0 19,0 6,1 12,3 17,5 5,3 9,5 13,9 4,3 7,7 9,11 3,3 5,7 6,11 1,5 3,9 3,13 5,23 -7,11 9,23 z m -7,9 c -3,-2 -6,-4 -8,-5 -3,-2 -4,-4 -4,-6 -2,-3 -1,-16 -1,-20 -1,-3 -1,-6 -3,-9 -1,-3 -3,-7 -5,-10 -2,-3 -4,-5 -7,-8 -3,-3 -7,-5 -10,-7 -5,-2 -10,-3 -15,-4 -4,-1 -9,-1 -14,-1 -5,1 -10,2 -14,5 -5,1 -8,4 -12,8 -4,3 -7,8 -10,12 -2,4 -5,9 -6,14 -1,5 -2,11 -1,15 0,5 1,10 3,15 2,5 5,10 9,13 3,4 7,8 11,10 4,2 9,4 14,5 5,1 10,1 15,1 3,-1 7,-1 9,-2 3,-1 5,-2 6,-3 4,-2 4,-2 7,-1 1,0 3,-1 17,11 8,7 23,20 35,30 l 13,11 c 1,1 10,10 10,10 l 5,0 c 0,0 1,0 3,0 l 8,-2 8,-3 c 1,0 1,1 2,0 -1,0 -1,0 -1,-1 0,-3 0,-10 0,-15 l 0,-4 c 0,-2 0,-2 0,-2 l -4,-5 -8,2 c -3,1 -5,1 -7,-1 -2,-2 -3,-3 -3,-7 0,-3 0,-6 -1,-9 l -7,1 c -8,2 -8,2 -9,-8 l -1,-8 -8,2 c -10,1 -10,1 -10,-8 l -1,-12 -5,-4 0,0 z"
     id="path19"
     inkscape:connector-curvature="0"
     style="fill:#74a3c7;fill-rule:nonzero;stroke:#74a3c7;stroke-width:7.61999989;fill-opacity:1;stroke-opacity:1" /><path
     class="fil2 str1"
     d="m 265,54 c 0,-3 -2,-5 -4,-7 -2,-2 -5,-3 -8,-3 -2,1 -5,2 -6,4 -2,2 -3,5 -2,8 l 0,0 c 0,3 1,6 3,7 2,2 4,3 8,3 3,0 5,-2 6,-4 2,-2 3,-4 3,-7 l 0,-1 z m 4,-16 c 4,4 6,9 8,14 l 0,1 c 0,6 -2,12 -5,16 -4,5 -9,8 -15,9 -6,0 -12,-2 -16,-5 -4,-4 -7,-9 -8,-15 l 0,-1 c -1,-6 1,-12 5,-16 3,-4 8,-8 15,-8 5,-1 12,2 16,5 z"
     id="path21"
     inkscape:connector-curvature="0"
     style="fill:#74a3c7;fill-rule:nonzero;stroke:#74a3c7;stroke-width:7.61999989;stroke-opacity:1;fill-opacity:1" /></svg>
