<?xml version="1.0" encoding="UTF-8" standalone="no"?>
<!-- Creator: CorelDRAW X7 -->

<svg
   xmlns:dc="http://purl.org/dc/elements/1.1/"
   xmlns:cc="http://creativecommons.org/ns#"
   xmlns:rdf="http://www.w3.org/1999/02/22-rdf-syntax-ns#"
   xmlns:svg="http://www.w3.org/2000/svg"
   xmlns="http://www.w3.org/2000/svg"
   xmlns:sodipodi="http://sodipodi.sourceforge.net/DTD/sodipodi-0.dtd"
   xmlns:inkscape="http://www.inkscape.org/namespaces/inkscape"
   xml:space="preserve"
   width="4.2332mm"
   height="4.2332mm"
   version="1.1"
   style="shape-rendering:geometricPrecision; text-rendering:geometricPrecision; image-rendering:optimizeQuality; fill-rule:evenodd; clip-rule:evenodd"
   viewBox="0 0 423 423"
   id="svg2"
   inkscape:version="0.91 r13725"
   sodipodi:docname="20.svg"><metadata
     id="metadata35"><rdf:RDF><cc:Work
         rdf:about=""><dc:format>image/svg+xml</dc:format><dc:type
           rdf:resource="http://purl.org/dc/dcmitype/StillImage" /></cc:Work></rdf:RDF></metadata><sodipodi:namedview
     pagecolor="#ffffff"
     bordercolor="#666666"
     borderopacity="1"
     objecttolerance="10"
     gridtolerance="10"
     guidetolerance="10"
     inkscape:pageopacity="0"
     inkscape:pageshadow="2"
     inkscape:window-width="1536"
     inkscape:window-height="814"
     id="namedview33"
     showgrid="false"
     inkscape:zoom="15.733829"
     inkscape:cx="7.4997639"
     inkscape:cy="7.4997639"
     inkscape:window-x="-8"
     inkscape:window-y="-8"
     inkscape:window-maximized="1"
     inkscape:current-layer="svg2" /><defs
     id="defs4"><style
       type="text/css"
       id="style6"><![CDATA[
    .str0 {stroke:#337ab7;stroke-width:18.99}
    .str1 {stroke:#F2AD00;stroke-width:18.99}
    .fil0 {fill:none}
    .fil1 {fill:#337ab7;fill-rule:nonzero}
    .fil2 {fill:#F2AD00;fill-rule:nonzero}
   ]]></style></defs><circle
     class="fil0 str0"
     cx="106"
     cy="82"
     r="46"
     id="circle11"
     style="fill:none;stroke:#74a3c7;stroke-width:18.98999977;stroke-opacity:1" /><path
     class="fil0 str0"
     d="m 110,138 c -4,0 -7,0 -15,1 -8,1 -20,2 -31,7 -11,4 -20,10 -27,17 -7,7 -12,14 -14,18 -2,3 -1,3 0,3 1,1 3,2 3,4 0,2 -2,4 -5,14 -3,10 -8,28 -10,39 -2,11 -1,15 0,18 1,3 3,5 7,6 4,1 10,1 14,-1 4,-3 6,-7 7,-14 2,-6 3,-16 6,-26 2,-9 6,-19 8,-24 3,-6 5,-7 6,-5 1,2 1,7 1,16 0,9 0,21 -1,30 0,8 -1,12 -2,18 -1,7 -2,17 -2,26 -1,9 0,19 0,24 0,5 0,5 7,5 7,0 21,0 28,0 8,0 10,0 10,-2 1,-2 0,-6 0,-10 -1,-5 0,-10 0,-13 1,-4 3,-6 10,-8 6,2 8,4 9,8 1,3 1,8 1,13 -1,4 -1,8 -1,10 1,2 2,2 10,2 8,0 21,0 28,0 7,0 7,0 8,-5 0,-5 0,-15 0,-24 -1,-9 -2,-19 -3,-26 -1,-6 -1,-10 -2,-18 -1,-9 -1,-21 -1,-30 0,-9 0,-14 1,-16 1,-2 3,-1 6,5 3,5 6,15 8,24 3,10 4,20 6,26 2,7 4,11 8,14 4,2 10,2 14,1 3,-1 5,-3 6,-6 2,-3 2,-7 0,-18 -2,-11 -6,-29 -9,-39 -4,-10 -5,-12 -5,-14 -1,-2 1,-3 2,-4 1,0 2,0 0,-3 -2,-4 -7,-11 -14,-18 -7,-7 -16,-13 -27,-17 -11,-5 -23,-6 -30,-7 -8,-1 -12,-1 -15,-1 z"
     id="path13"
     inkscape:connector-curvature="0"
     style="fill:none;stroke:#74a3c7;stroke-width:18.98999977;stroke-opacity:1" /><path
     class="fil1"
     d="m 90,236 38,0 c 15,0 14,19 1,19 l -39,0 c -15,0 -16,-19 0,-19 z"
     id="path15"
     inkscape:connector-curvature="0"
     style="fill:#74a3c7;fill-rule:nonzero;fill-opacity:1" /><path
     class="fil1"
     d="m 72,356 c -1,4 -2,7 -4,10 -1,1 -2,2 -4,3 l 5,0 c 4,0 9,0 13,-1 l 1,0 0,-6 c -1,-46 18,-48 19,0 l 0,6 c 0,3 0,5 -1,8 l 0,0 c -1,3 -2,6 -6,8 -3,2 -6,3 -11,3 -4,1 -9,1 -15,1 l -15,0 c -5,0 -8,0 -11,0 -5,-1 -9,-3 -11,-7 -1,-4 -1,-9 1,-13 1,-3 3,-5 6,-8 4,-3 9,-5 12,-6 l 2,-1 c 5,-36 23,-24 19,3 z m -18,-2 c -1,0 -1,0 0,0 z"
     id="path17"
     inkscape:connector-curvature="0"
     style="fill:#74a3c7;fill-rule:nonzero;fill-opacity:1" /><path
     class="fil1"
     d="m 146,356 c 1,4 2,7 4,10 1,1 2,2 4,3 l -5,0 c -4,0 -9,0 -13,-1 l -1,0 0,-6 c 1,-46 -18,-48 -19,0 l 0,6 c 0,3 0,5 1,8 l 0,0 c 1,3 2,6 6,8 3,2 6,3 11,3 4,1 9,1 15,1 l 15,0 c 5,0 8,0 11,0 5,-1 9,-3 11,-7 1,-4 1,-9 -1,-13 -1,-3 -3,-5 -6,-8 -4,-3 -9,-5 -12,-6 l -2,-1 c -5,-36 -23,-24 -19,3 z m 18,-2 c 1,0 1,0 0,0 z"
     id="path19"
     inkscape:connector-curvature="0"
     style="fill:#74a3c7;fill-rule:nonzero;fill-opacity:1" /><path
     class="fil0 str1"
     d="m 326,142 c -6,0 -11,0 -19,1 -8,0 -18,2 -26,5 -7,3 -11,7 -18,18 -7,11 -16,29 -21,47 -5,17 -5,34 -2,43 2,9 8,11 11,9 4,-2 6,-8 8,-17 2,-10 5,-24 7,-34 3,-10 7,-16 9,-18 2,-2 4,-1 4,6 0,7 -1,20 -2,32 -1,13 -3,26 -6,37 -3,11 -7,21 -8,26 -2,4 -2,4 2,6 3,2 10,5 21,7 11,2 25,2 40,3 15,-1 29,-1 39,-3 11,-2 18,-5 22,-7 4,-2 4,-2 2,-6 -2,-5 -5,-15 -8,-26 -3,-11 -5,-24 -7,-37 -1,-12 -2,-25 -1,-32 0,-7 1,-8 3,-6 3,2 6,8 9,18 3,10 5,24 7,34 2,9 4,15 8,17 4,2 9,0 12,-9 2,-9 2,-26 -3,-43 -5,-18 -14,-36 -21,-47 -6,-11 -11,-15 -18,-18 -7,-3 -18,-5 -26,-5 -7,-1 -13,-1 -18,-1 z"
     id="path21"
     inkscape:connector-curvature="0"
     style="fill:none;stroke:#74a3c7;stroke-width:18.98999977;stroke-opacity:1" /><path
     class="fil2"
     d="m 290,362 c 0,5 -1,8 -2,10 l 7,0 c 4,0 7,-1 9,-1 l 0,0 0,-10 c 0,-41 18,-46 19,-1 l 0,4 c 0,8 0,13 -3,18 -2,4 -6,6 -11,7 -3,1 -7,2 -13,2 -6,0 -13,0 -19,0 -6,-1 -11,-2 -14,-3 -7,-4 -8,-9 -5,-15 2,-4 8,-7 12,-9 l 1,0 0,-3 c 3,-53 22,-44 19,1 z m -19,3 0,-1 c 0,1 0,1 0,1 z m 33,6 0,0 0,0 z m 0,0 c 0,0 0,1 0,0 l 0,0 z"
     id="path23"
     inkscape:connector-curvature="0"
     style="fill:#74a3c7;fill-rule:nonzero;fill-opacity:1" /><path
     class="fil2"
     d="m 364,362 c 0,5 1,8 2,10 l -7,0 c -4,0 -7,-1 -9,-1 l 0,0 0,-10 c 0,-41 -18,-46 -19,-1 l 0,4 c 0,8 0,13 3,18 2,4 6,6 11,7 3,1 7,2 13,2 6,0 13,0 19,0 6,-1 11,-2 14,-3 7,-4 8,-9 5,-15 -2,-4 -8,-7 -12,-9 l -1,0 0,-3 c -3,-53 -22,-44 -19,1 z m 19,3 0,-1 c 0,1 0,1 0,1 z m -33,6 0,0 0,0 z m 0,0 c 0,0 0,1 0,0 l 0,0 z"
     id="path25"
     inkscape:connector-curvature="0"
     style="fill:#74a3c7;fill-rule:nonzero;fill-opacity:1" /><circle
     class="fil0 str1"
     cx="322"
     cy="82"
     r="46"
     id="circle27"
     style="fill:none;stroke:#74a3c7;stroke-width:18.98999977;stroke-opacity:1" /><path
     class="fil0 str1"
     d="m 282,56 c -7,1 -14,2 -22,7 -9,6 -18,15 -23,22 -5,7 -5,11 -5,14 1,3 2,6 6,10 4,4 10,10 14,11 3,1 3,-2 5,-9 3,-6 8,-16 11,-22 4,-7 6,-9 8,-10"
     id="path29"
     inkscape:connector-curvature="0"
     style="fill:none;stroke:#74a3c7;stroke-width:18.98999977;stroke-opacity:1" /><path
     class="fil0 str1"
     d="m 360,56 c 7,1 14,2 23,7 8,6 17,15 22,22 5,7 6,11 5,14 -1,3 -2,6 -6,10 -4,4 -10,10 -13,11 -4,1 -4,-2 -6,-9 -3,-6 -8,-16 -11,-22 -4,-7 -6,-9 -8,-10"
     id="path31"
     inkscape:connector-curvature="0"
     style="fill:none;stroke:#74a3c7;stroke-width:18.98999977;stroke-opacity:1" /></svg>
