<?xml version="1.0" encoding="UTF-8" standalone="no"?>
<!-- Creator: CorelDRAW X7 -->

<svg
   xmlns:dc="http://purl.org/dc/elements/1.1/"
   xmlns:cc="http://creativecommons.org/ns#"
   xmlns:rdf="http://www.w3.org/1999/02/22-rdf-syntax-ns#"
   xmlns:svg="http://www.w3.org/2000/svg"
   xmlns="http://www.w3.org/2000/svg"
   xmlns:sodipodi="http://sodipodi.sourceforge.net/DTD/sodipodi-0.dtd"
   xmlns:inkscape="http://www.inkscape.org/namespaces/inkscape"
   xml:space="preserve"
   width="4.2332mm"
   height="4.2332mm"
   version="1.1"
   style="shape-rendering:geometricPrecision; text-rendering:geometricPrecision; image-rendering:optimizeQuality; fill-rule:evenodd; clip-rule:evenodd"
   viewBox="0 0 423 423"
   id="svg2"
   inkscape:version="0.91 r13725"
   sodipodi:docname="21.svg"><metadata
     id="metadata19"><rdf:RDF><cc:Work
         rdf:about=""><dc:format>image/svg+xml</dc:format><dc:type
           rdf:resource="http://purl.org/dc/dcmitype/StillImage" /></cc:Work></rdf:RDF></metadata><sodipodi:namedview
     pagecolor="#ffffff"
     bordercolor="#666666"
     borderopacity="1"
     objecttolerance="10"
     gridtolerance="10"
     guidetolerance="10"
     inkscape:pageopacity="0"
     inkscape:pageshadow="2"
     inkscape:window-width="1536"
     inkscape:window-height="814"
     id="namedview17"
     showgrid="false"
     inkscape:zoom="15.733829"
     inkscape:cx="7.4997639"
     inkscape:cy="7.4997639"
     inkscape:window-x="-8"
     inkscape:window-y="-8"
     inkscape:window-maximized="1"
     inkscape:current-layer="svg2" /><defs
     id="defs4"><style
       type="text/css"
       id="style6"><![CDATA[
    .fil0 {fill:#337ab7;fill-rule:nonzero}
    .fil1 {fill:#F2AD00;fill-rule:nonzero}
   ]]></style></defs><g
     id="Слой_x0020_1"
     style="fill:#74a3c7;fill-opacity:1"><metadata
       id="CorelCorpID_0Corel-Layer" /><g
       id="_1153288224"
       style="fill:#74a3c7;fill-opacity:1"><path
         class="fil0"
         d="M31 210c0,0 154,-130 172,-144l6 -4 5 4c102,78 176,144 177,144l3 3 0 164c0,12 -5,23 -13,31 -8,8 -19,13 -31,14l-95 1 0 -168 -98 0 0 168 -86 -1c-12,-1 -23,-6 -31,-14 -8,-8 -13,-19 -13,-31l0 -164 4 -3zm178 -124c-35,28 -142,119 -163,136l0 155c0,7 3,13 8,18 4,5 10,8 17,8l67 1 0 -168 136 0 0 168 76 -1c7,0 13,-3 18,-8 4,-5 7,-11 7,-18l0 -155c-19,-16 -117,-98 -166,-136z"
         id="path11"
         style="fill:#74a3c7;fill-opacity:1" /><path
         class="fil1"
         d="M21 171c44,-36 164,-135 182,-150l6 -4 5 4c17,13 148,118 191,152 21,17 11,33 -12,15 -39,-31 -151,-121 -184,-146 -31,25 -140,114 -178,146 -22,18 -34,3 -10,-17z"
         id="path13"
         style="fill:#74a3c7;fill-opacity:1" /><path
         class="fil1"
         d="M373 123l0 -97c0,-1 -1,-3 -2,-4 -1,-1 -2,-1 -4,-1l-48 0c-1,0 -3,0 -4,1 -1,1 -2,3 -2,4l0 33c0,21 -19,23 -19,-2l0 -31c0,-7 3,-13 8,-18 4,-4 10,-7 17,-7l48 0c7,0 13,3 18,7 4,5 7,11 7,18l0 99c0,28 -19,28 -19,-2z"
         id="path15"
         style="fill:#74a3c7;fill-opacity:1" /></g></g></svg>
