<?xml version="1.0" encoding="UTF-8" standalone="no"?>
<!-- Creator: CorelDRAW X7 -->

<svg
   xmlns:dc="http://purl.org/dc/elements/1.1/"
   xmlns:cc="http://creativecommons.org/ns#"
   xmlns:rdf="http://www.w3.org/1999/02/22-rdf-syntax-ns#"
   xmlns:svg="http://www.w3.org/2000/svg"
   xmlns="http://www.w3.org/2000/svg"
   xmlns:sodipodi="http://sodipodi.sourceforge.net/DTD/sodipodi-0.dtd"
   xmlns:inkscape="http://www.inkscape.org/namespaces/inkscape"
   xml:space="preserve"
   width="4.2332mm"
   height="4.2332mm"
   version="1.1"
   style="shape-rendering:geometricPrecision; text-rendering:geometricPrecision; image-rendering:optimizeQuality; fill-rule:evenodd; clip-rule:evenodd"
   viewBox="0 0 423 423"
   id="svg2"
   inkscape:version="0.91 r13725"
   sodipodi:docname="22.svg"><metadata
     id="metadata18"><rdf:RDF><cc:Work
         rdf:about=""><dc:format>image/svg+xml</dc:format><dc:type
           rdf:resource="http://purl.org/dc/dcmitype/StillImage" /></cc:Work></rdf:RDF></metadata><sodipodi:namedview
     pagecolor="#ffffff"
     bordercolor="#666666"
     borderopacity="1"
     objecttolerance="10"
     gridtolerance="10"
     guidetolerance="10"
     inkscape:pageopacity="0"
     inkscape:pageshadow="2"
     inkscape:window-width="1536"
     inkscape:window-height="814"
     id="namedview16"
     showgrid="false"
     inkscape:zoom="15.733829"
     inkscape:cx="7.4997639"
     inkscape:cy="7.4997639"
     inkscape:window-x="-8"
     inkscape:window-y="-8"
     inkscape:window-maximized="1"
     inkscape:current-layer="svg2" /><defs
     id="defs4"><style
       type="text/css"
       id="style6"><![CDATA[
    .str0 {stroke:#337ab7;stroke-width:18.99}
    .fil2 {fill:none}
    .fil0 {fill:#F2AD00}
    .fil1 {fill:#337ab7;fill-rule:nonzero}
   ]]></style></defs><path
     style="fill:#74a3c7;fill-opacity:1"
     inkscape:connector-curvature="0"
     id="path10"
     d="m 28,193 c 0,12 0,33 -1,46 0,13 -1,17 -3,23 -1,6 -2,14 -2,21 1,7 4,14 6,17 3,3 6,2 8,-3 2,-5 2,-14 2,-22 0,-9 -2,-17 -3,-24 -1,-8 -2,-15 -3,-27 -1,-11 -1,-28 -2,-36 0,-8 0,-9 -1,-8 0,0 -1,2 -1,13 z"
     class="fil0" /><path
     style="fill:#74a3c7;fill-rule:nonzero;fill-opacity:1"
     inkscape:connector-curvature="0"
     id="path12"
     d="m 108,270 c 0,17 26,29 58,35 14,2 29,4 44,4 15,0 29,-2 43,-4 32,-6 58,-18 58,-35 0,-36 3,-36 7,-39 4,-2 10,10 10,39 0,29 -31,47 -72,54 -15,2 -31,4 -46,4 -16,0 -32,-1 -47,-4 -41,-7 -72,-25 -72,-54 0,-23 4,-41 11,-40 4,1 6,15 6,40 z"
     class="fil1" /><polygon
     style="fill:none;stroke:#74a3c7;stroke-width:18.98999977;stroke-opacity:1"
     id="polygon14"
     points="398,177 305,216 212,256 119,216 26,177 119,138 212,99 305,138 "
     class="fil2 str0" /></svg>
