<?xml version="1.0" encoding="UTF-8" standalone="no"?>
<!-- Creator: CorelDRAW X7 -->

<svg
   xmlns:dc="http://purl.org/dc/elements/1.1/"
   xmlns:cc="http://creativecommons.org/ns#"
   xmlns:rdf="http://www.w3.org/1999/02/22-rdf-syntax-ns#"
   xmlns:svg="http://www.w3.org/2000/svg"
   xmlns="http://www.w3.org/2000/svg"
   xmlns:sodipodi="http://sodipodi.sourceforge.net/DTD/sodipodi-0.dtd"
   xmlns:inkscape="http://www.inkscape.org/namespaces/inkscape"
   xml:space="preserve"
   width="4.2332mm"
   height="4.2332mm"
   version="1.1"
   style="shape-rendering:geometricPrecision; text-rendering:geometricPrecision; image-rendering:optimizeQuality; fill-rule:evenodd; clip-rule:evenodd"
   viewBox="0 0 423 423"
   id="svg2"
   inkscape:version="0.91 r13725"
   sodipodi:docname="23.svg"><metadata
     id="metadata22"><rdf:RDF><cc:Work
         rdf:about=""><dc:format>image/svg+xml</dc:format><dc:type
           rdf:resource="http://purl.org/dc/dcmitype/StillImage" /></cc:Work></rdf:RDF></metadata><sodipodi:namedview
     pagecolor="#ffffff"
     bordercolor="#666666"
     borderopacity="1"
     objecttolerance="10"
     gridtolerance="10"
     guidetolerance="10"
     inkscape:pageopacity="0"
     inkscape:pageshadow="2"
     inkscape:window-width="1536"
     inkscape:window-height="814"
     id="namedview20"
     showgrid="false"
     inkscape:zoom="15.733829"
     inkscape:cx="7.4997639"
     inkscape:cy="7.4997639"
     inkscape:window-x="-8"
     inkscape:window-y="-8"
     inkscape:window-maximized="1"
     inkscape:current-layer="svg2" /><defs
     id="defs4"><style
       type="text/css"
       id="style6"><![CDATA[
    .str0 {stroke:#337ab7;stroke-width:18.99}
    .fil0 {fill:none}
    .fil2 {fill:#337ab7;fill-rule:nonzero}
    .fil1 {fill:#F2AD00;fill-rule:nonzero}
   ]]></style></defs><path
     style="fill:none;stroke:#74a3c7;stroke-width:18.98999977;stroke-opacity:1"
     inkscape:connector-curvature="0"
     id="path10"
     d="m 21,217 c 0,-9 1,-27 7,-48 5,-20 17,-44 33,-65 17,-21 40,-40 63,-52 24,-12 48,-18 73,-20 25,-2 49,0 74,9 25,8 49,23 69,41 20,19 35,41 45,64 9,22 13,45 14,59 2,14 2,20 2,22 0,3 0,3 -3,-1 -3,-4 -10,-12 -22,-17 -12,-4 -29,-6 -44,-3 -15,2 -27,7 -34,11 -7,5 -10,9 -11,11 -1,2 -1,2 -5,-1 -4,-3 -11,-9 -24,-14 -12,-5 -29,-8 -46,-8 -18,0 -35,3 -48,9 -14,5 -23,11 -28,14 -4,4 -4,4 -5,1 -2,-2 -4,-7 -10,-12 -7,-5 -18,-10 -30,-12 -12,-2 -25,-1 -35,2 -10,2 -18,7 -23,10 -6,4 -9,7 -11,9 -1,1 -1,0 -1,-9 z"
     class="fil0 str0" /><path
     style="fill:#74a3c7;fill-rule:nonzero;fill-opacity:1"
     inkscape:connector-curvature="0"
     id="path12"
     d="m 224,248 c 0,33 0,65 -1,90 -1,15 -2,27 -4,37 -2,10 -5,18 -9,25 -5,7 -12,12 -19,16 -7,3 -16,5 -25,5 -8,0 -17,-2 -25,-5 -7,-4 -14,-9 -20,-15 -5,-7 -8,-15 -11,-24 -9,-33 11,-43 22,-6 1,6 4,12 7,16 3,4 7,7 11,9 5,2 11,3 16,3 6,0 11,-1 15,-3 5,-2 8,-5 11,-8 2,-5 4,-10 6,-17 1,-9 2,-20 3,-34 1,-23 1,-56 1,-91 0,-33 22,-34 22,2 z"
     class="fil1" /><path
     style="fill:#74a3c7;fill-rule:nonzero;fill-opacity:1"
     inkscape:connector-curvature="0"
     id="path14"
     d="m 224,15 -21,0 c 0,0 1,-15 10,-15 10,0 11,15 11,15 z"
     class="fil1" /><path
     style="fill:#74a3c7;fill-rule:nonzero;fill-opacity:1"
     inkscape:connector-curvature="0"
     id="path16"
     d="m 135,150 c 1,-9 4,-19 8,-28 3,-10 8,-19 14,-29 23,-38 42,-33 16,10 -5,9 -9,17 -13,26 -3,8 -5,16 -7,25 -8,42 -26,34 -18,-4 z"
     class="fil2" /><path
     style="fill:#74a3c7;fill-rule:nonzero;fill-opacity:1"
     inkscape:connector-curvature="0"
     id="path18"
     d="m 288,150 c -1,-9 -4,-19 -8,-28 -3,-10 -8,-19 -14,-29 -23,-38 -42,-33 -16,10 5,9 9,17 13,26 3,8 5,16 7,25 8,42 25,34 18,-4 z"
     class="fil2" /></svg>
