<?xml version="1.0" encoding="UTF-8" standalone="no"?>
<!-- Creator: CorelDRAW X7 -->

<svg
   xmlns:dc="http://purl.org/dc/elements/1.1/"
   xmlns:cc="http://creativecommons.org/ns#"
   xmlns:rdf="http://www.w3.org/1999/02/22-rdf-syntax-ns#"
   xmlns:svg="http://www.w3.org/2000/svg"
   xmlns="http://www.w3.org/2000/svg"
   xmlns:sodipodi="http://sodipodi.sourceforge.net/DTD/sodipodi-0.dtd"
   xmlns:inkscape="http://www.inkscape.org/namespaces/inkscape"
   xml:space="preserve"
   width="4.2332mm"
   height="4.2332mm"
   version="1.1"
   style="shape-rendering:geometricPrecision; text-rendering:geometricPrecision; image-rendering:optimizeQuality; fill-rule:evenodd; clip-rule:evenodd"
   viewBox="0 0 423 423"
   id="svg2"
   inkscape:version="0.91 r13725"
   sodipodi:docname="25.svg"><metadata
     id="metadata24"><rdf:RDF><cc:Work
         rdf:about=""><dc:format>image/svg+xml</dc:format><dc:type
           rdf:resource="http://purl.org/dc/dcmitype/StillImage" /></cc:Work></rdf:RDF></metadata><sodipodi:namedview
     pagecolor="#ffffff"
     bordercolor="#666666"
     borderopacity="1"
     objecttolerance="10"
     gridtolerance="10"
     guidetolerance="10"
     inkscape:pageopacity="0"
     inkscape:pageshadow="2"
     inkscape:window-width="1536"
     inkscape:window-height="814"
     id="namedview22"
     showgrid="false"
     inkscape:zoom="15.733829"
     inkscape:cx="7.4997639"
     inkscape:cy="7.4997639"
     inkscape:window-x="-8"
     inkscape:window-y="-8"
     inkscape:window-maximized="1"
     inkscape:current-layer="svg2" /><defs
     id="defs4"><style
       type="text/css"
       id="style6"><![CDATA[
    .fil2 {fill:#F2AD00}
    .fil0 {fill:#337ab7;fill-rule:nonzero}
    .fil1 {fill:#F2AD00;fill-rule:nonzero}
   ]]></style></defs><g
     id="Слой_x0020_1"
     style="fill:#74a3c7;fill-opacity:1"><metadata
       id="CorelCorpID_0Corel-Layer" /><path
       class="fil0"
       d="M396 404l-46 0c-1,0 -1,-1 -2,-1 0,0 0,-1 0,-1l0 -88c0,-1 0,-1 0,-1 1,-1 1,-1 2,-1l46 0c0,0 1,0 1,1 0,0 0,0 0,1l0 88c0,0 0,1 0,1 0,0 -1,1 -1,1zm-46 18l46 0c5,0 10,-2 14,-6 4,-3 6,-9 6,-14l0 -88c0,-6 -2,-11 -6,-15 -4,-3 -9,-6 -14,-6l-46 0c-6,0 -11,3 -15,6 -4,4 -6,9 -6,15l0 88c0,5 2,11 6,14 4,4 9,6 15,6z"
       id="path10"
       style="fill:#74a3c7;fill-opacity:1" /><path
       class="fil0"
       d="M290 404l-46 0c-1,0 -1,-1 -2,-1 0,0 0,-1 0,-1l0 -167c0,0 0,-1 0,-1 1,0 1,0 2,0l46 0c0,0 1,0 1,0 0,0 0,1 0,1l0 167c0,0 0,1 0,1 0,0 -1,1 -1,1zm-46 18l46 0c5,0 10,-2 14,-6 4,-3 6,-9 6,-14l0 -167c0,-5 -2,-11 -6,-14 -4,-4 -9,-6 -14,-6l-46 0c-6,0 -11,2 -15,6 -4,4 -6,9 -6,14l0 167c0,5 2,11 6,14 4,4 9,6 15,6z"
       id="path12"
       style="fill:#74a3c7;fill-opacity:1" /><path
       class="fil0"
       d="M171 404l-46 0c-1,0 -1,-1 -1,-1 -1,0 -1,-1 -1,-1l0 -143c0,-1 0,-1 1,-2 0,0 0,0 1,0l46 0c0,0 1,0 1,0 0,1 1,1 1,2l0 143c0,0 -1,1 -1,1 0,0 -1,1 -1,1zm-46 18l46 0c5,0 11,-2 14,-6 4,-3 6,-9 6,-14l0 -143c0,-6 -2,-11 -6,-15 -3,-4 -9,-6 -14,-6l-46 0c-6,0 -11,2 -15,6 -3,4 -6,9 -6,15l0 143c0,5 3,11 6,14 4,4 9,6 15,6z"
       id="path14"
       style="fill:#74a3c7;fill-opacity:1" /><path
       class="fil0"
       d="M68 404l-46 0c-1,0 -1,-1 -1,-1 -1,0 -1,-1 -1,-1l0 -263c0,-1 0,-1 1,-1 0,-1 0,-1 1,-1l46 0c0,0 1,0 1,1 0,0 1,0 1,1l0 263c0,0 -1,1 -1,1 0,0 -1,1 -1,1zm-46 18l46 0c5,0 11,-2 14,-6 4,-3 6,-9 6,-14l0 -263c0,-6 -2,-11 -6,-15 -3,-3 -9,-6 -14,-6l-46 0c-6,0 -11,3 -15,6 -3,4 -6,9 -6,15l0 263c0,5 3,11 6,14 4,4 9,6 15,6z"
       id="path16"
       style="fill:#74a3c7;fill-opacity:1" /><path
       class="fil1"
       d="M397 214c-38,-36 -74,-70 -93,-89 -13,-12 -21,-19 -29,-21 -12,-4 -19,-1 -30,8 -8,7 -19,18 -29,28 -8,8 -16,16 -22,21 -3,3 -2,5 -3,5 -2,-1 -7,-6 -16,-15 -11,-12 -26,-29 -43,-49l-75 -84c-22,-26 -43,-7 -23,16l77 87c17,20 33,38 44,49 12,14 20,21 29,23 12,3 19,-1 29,-11 6,-5 14,-13 23,-22 10,-10 21,-20 27,-26 3,-2 2,-4 3,-4 3,1 8,6 19,16 21,20 57,55 95,92 19,18 44,3 17,-24l0 0z"
       id="path18"
       style="fill:#74a3c7;fill-opacity:1" /><path
       class="fil2"
       d="M372 177c-12,11 -31,29 -41,39 -11,10 -10,12 -10,14 0,2 0,4 17,10 15,6 45,16 62,20 15,5 17,5 18,5 1,0 3,-1 4,-3 1,-1 3,-4 -2,-21 -3,-16 -12,-47 -17,-62 -5,-16 -6,-17 -8,-18 -1,0 -3,1 -5,2 -3,1 -7,3 -18,14l0 0z"
       id="path20"
       style="fill:#74a3c7;fill-opacity:1" /></g></svg>
