<?xml version="1.0" encoding="iso-8859-1"?>
<!-- Generator: Adobe Illustrator 16.0.4, SVG Export Plug-In . SVG Version: 6.00 Build 0)  -->
<!DOCTYPE svg PUBLIC "-//W3C//DTD SVG 1.1//EN" "http://www.w3.org/Graphics/SVG/1.1/DTD/svg11.dtd">
<svg version="1.1" id="&#x421;&#x43B;&#x43E;&#x439;_1"
	 xmlns="http://www.w3.org/2000/svg" xmlns:xlink="http://www.w3.org/1999/xlink" x="0px" y="0px" width="96px" height="81px"
	 viewBox="0 0 96 81" style="enable-background:new 0 0 96 81;" xml:space="preserve">
<g>
	<defs>
		<rect id="SVGID_1_" width="96" height="81"/>
	</defs>
	<clipPath id="SVGID_2_">
		<use xlink:href="#SVGID_1_"  style="overflow:visible;"/>
	</clipPath>
	<path fill="#74a3c7" style="clip-path:url(#SVGID_2_);" d="M0,21c0-3.314,2.686-6,6-6h21v-3c0-6.625,5.375-12,12-12h15c6.625,0,12,5.375,12,12v3
		h24c3.313,0,6,2.686,6,6v54c0,3.314-2.687,6-6,6H6c-3.314,0-6-2.686-6-6V21z M63,12c0-4.969-4.031-9-9-9H39c-4.969,0-9,4.031-9,9v3
		h3v-3c0-3.314,2.686-6,6-6h15c3.314,0,6,2.686,6,6v3h3V12z M57,12c0-1.658-1.346-3-3-3H39c-1.655,0-3,1.342-3,3v3h21V12z
		 M57,42.176h36V21c0-1.658-1.344-3-3-3H66h-3h-3h-3H36h-3h-3h-3H6c-1.657,0-3,1.342-3,3v21.176h36c0-3.314,2.687-6.002,6-6.002h6
		C54.314,36.174,57,38.862,57,42.176 M93,45.09H57v3.086c0,3.313-2.686,5.998-6,5.998h-6c-3.313,0-6-2.686-6-5.998V45.09H3V75
		c0,1.656,1.342,3,3,3h84c1.658,0,3-1.342,3-3V45.09z M42,45.09v3.086c0,1.654,1.342,3,3,3h6c1.658,0,3-1.344,3-3V45.09v-2.914
		c0-1.658-1.344-3-3-3h-6c-1.656,0-3,1.342-3,3V45.09z"/>
</g>
</svg>
