<?xml version="1.0" encoding="iso-8859-1"?>
<!-- Generator: Adobe Illustrator 16.0.4, SVG Export Plug-In . SVG Version: 6.00 Build 0)  -->
<!DOCTYPE svg PUBLIC "-//W3C//DTD SVG 1.1//EN" "http://www.w3.org/Graphics/SVG/1.1/DTD/svg11.dtd">
<svg version="1.1" id="&#x421;&#x43B;&#x43E;&#x439;_1"
	 xmlns="http://www.w3.org/2000/svg" xmlns:xlink="http://www.w3.org/1999/xlink" x="0px" y="0px" width="49.901px"
	 height="49.902px" viewBox="0 0 49.901 49.902" style="enable-background:new 0 0 49.901 49.902;" xml:space="preserve">
<g>
	<defs>
		<rect id="SVGID_1_" y="0" width="49.901" height="49.902"/>
	</defs>
	<clipPath id="SVGID_2_">
		<use xlink:href="#SVGID_1_"  style="overflow:visible;"/>
	</clipPath>
	<path fill="#74a3c7" style="clip-path:url(#SVGID_2_);" d="M15.748,31.323c-0.195-0.195-0.512-0.195-0.707,0L3.727,42.639
		c-0.195,0.194-0.195,0.512,0,0.707c0.098,0.098,0.226,0.146,0.354,0.146s0.256-0.049,0.354-0.146L15.748,32.03
		C15.943,31.835,15.943,31.519,15.748,31.323"/>
	<path fill="#74a3c7" style="clip-path:url(#SVGID_2_);" d="M17.869,34.151L6.555,45.467c-0.195,0.194-0.195,0.512,0,0.707
		c0.098,0.098,0.226,0.146,0.354,0.146c0.128,0,0.256-0.049,0.354-0.146l11.313-11.314c0.195-0.195,0.195-0.512,0-0.707
		C18.381,33.957,18.064,33.956,17.869,34.151"/>
	<path fill="#74a3c7" style="clip-path:url(#SVGID_2_);" d="M35.768,29.409l-5.87-5.871l12.64-12.639h2.621c0.133,0,0.26-0.053,0.354-0.146
		l4.243-4.243c0.094-0.094,0.146-0.221,0.146-0.354c0-0.133-0.054-0.26-0.146-0.354l-5.657-5.656c-0.194-0.195-0.512-0.195-0.707,0
		l-4.242,4.242c-0.095,0.094-0.146,0.221-0.146,0.354v2.621l-12.64,12.639c-1.158-1.158-4.908-4.908-5.871-5.871
		c1.358-3.812,0.408-8.077-2.464-10.948C15.354,0.509,11.423-0.52,7.772,0.501C7.601,0.549,7.468,0.685,7.423,0.855
		c-0.045,0.172,0.004,0.355,0.13,0.48l3.957,3.958l-1.314,4.905l-4.907,1.315L1.333,7.557c-0.126-0.126-0.31-0.175-0.48-0.13
		C0.681,7.472,0.546,7.605,0.499,7.776c-1.019,3.652,0.008,7.581,2.682,10.255c2.872,2.871,7.136,3.819,10.948,2.463L20,26.365
		l-1.939,1.939c-0.809-0.452-1.712-0.716-2.664-0.716c-1.469,0-2.85,0.572-3.889,1.611l-9.9,9.898c-2.144,2.145-2.144,5.635,0,7.778
		l1.415,1.414c1.039,1.039,2.419,1.611,3.889,1.611c1.47,0,2.85-0.572,3.889-1.611l9.899-9.899c1.039-1.038,1.611-2.419,1.611-3.889
		c0-0.951-0.263-1.854-0.715-2.664l1.939-1.938l5.871,5.871c-1.357,3.812-0.407,8.077,2.464,10.948
		c1.991,1.99,4.678,3.068,7.429,3.068c0.943,0,1.896-0.127,2.828-0.388c0.171-0.048,0.304-0.183,0.349-0.354
		c0.046-0.171-0.004-0.354-0.13-0.479l-3.957-3.957l1.314-4.906l4.906-1.313l3.957,3.957c0.125,0.125,0.307,0.178,0.479,0.13
		c0.172-0.045,0.307-0.178,0.354-0.35c1.019-3.651-0.01-7.582-2.684-10.256C43.844,28.999,39.581,28.052,35.768,29.409
		 M14.607,19.561c-0.14-0.141-0.35-0.184-0.536-0.112c-3.518,1.379-7.516,0.545-10.185-2.124c-2.21-2.211-3.177-5.372-2.623-8.422
		l3.522,3.522c0.126,0.126,0.311,0.176,0.483,0.129l5.465-1.465c0.172-0.046,0.307-0.181,0.354-0.354l1.464-5.463
		c0.046-0.172-0.003-0.356-0.129-0.483L8.898,1.266c3.052-0.558,6.212,0.412,8.422,2.623c2.669,2.668,3.502,6.666,2.128,10.176
		c-0.125,0.303-0.112,0.325,6.207,6.644l-4.95,4.95L14.607,19.561z M39.854,7.923C39.948,7.829,40,7.702,40,7.569V4.948l3.743-3.742
		l4.95,4.949L44.95,9.898h-2.621c-0.133,0-0.26,0.053-0.354,0.146L21.052,30.971L18.93,28.85L39.854,7.923z M19.99,37.687
		l-9.899,9.899c-0.85,0.852-1.979,1.318-3.182,1.318c-1.203,0-2.332-0.468-3.182-1.318l-1.415-1.414
		c-1.754-1.755-1.754-4.609,0-6.364l9.9-9.898c0.85-0.851,1.979-1.317,3.182-1.317s2.332,0.468,3.182,1.317l1.414,1.414
		c0.85,0.852,1.318,1.98,1.318,3.183C21.308,35.707,20.84,36.837,19.99,37.687 M48.634,41.002l-3.522-3.521
		c-0.126-0.126-0.311-0.173-0.483-0.13l-5.464,1.464c-0.172,0.047-0.307,0.182-0.354,0.354l-1.464,5.465
		c-0.046,0.173,0.004,0.356,0.13,0.482l3.523,3.523c-3.053,0.552-6.212-0.412-8.424-2.623c-2.668-2.668-3.502-6.666-2.124-10.186
		c0.072-0.186,0.027-0.396-0.112-0.536l-6.099-6.099l4.95-4.95l6.099,6.1c0.141,0.141,0.352,0.184,0.536,0.111
		c3.521-1.378,7.518-0.545,10.185,2.124C48.22,34.791,49.187,37.951,48.634,41.002"/>
</g>
</svg>
