<?xml version="1.0" encoding="iso-8859-1"?>
<!-- Generator: Adobe Illustrator 16.0.4, SVG Export Plug-In . SVG Version: 6.00 Build 0)  -->
<!DOCTYPE svg PUBLIC "-//W3C//DTD SVG 1.1//EN" "http://www.w3.org/Graphics/SVG/1.1/DTD/svg11.dtd">
<svg version="1.1" id="&#x421;&#x43B;&#x43E;&#x439;_1"
	 xmlns="http://www.w3.org/2000/svg" xmlns:xlink="http://www.w3.org/1999/xlink" x="0px" y="0px" width="79px" height="88.817px"
	 viewBox="0 0 79 88.817" style="enable-background:new 0 0 79 88.817;" xml:space="preserve">
<g>
	<defs>
		<rect id="SVGID_1_" width="79" height="88.817"/>
	</defs>
	<clipPath id="SVGID_2_">
		<use xlink:href="#SVGID_1_"  style="overflow:visible;"/>
	</clipPath>
	<path fill="#74a3c7" style="clip-path:url(#SVGID_2_);" d="M13.5,17.417c-4.5,0-8.4-3.6-8.6-8.2c-0.3-4.8,3.4-8.9,8.1-9.2c4.8-0.3,8.9,3.4,9.2,8.1
		c0.3,4.8-3.4,8.9-8.1,9.2C13.9,17.417,13.7,17.417,13.5,17.417 M13.6,2.217h-0.4c-3.6,0.2-6.4,3.3-6.2,6.9c0.2,3.6,3.3,6.4,6.9,6.2
		s6.4-3.3,6.2-6.9C19.9,4.917,17,2.217,13.6,2.217"/>
	<path fill="#74a3c7" style="clip-path:url(#SVGID_2_);" d="M27,32.817H0v-1c0-7.4,6.1-13,13.5-13s13.5,5.6,13.5,13V32.817z M2.6,30.817h21.8
		c-0.5-6-5-9.9-10.9-9.9S3.1,24.817,2.6,30.817"/>
	<path fill="#74a3c7" style="clip-path:url(#SVGID_2_);" d="M65.9,17.417c-4.5,0-8.4-3.6-8.601-8.2c-0.3-4.8,3.4-8.9,8.101-9.2
		c4.8-0.3,8.899,3.4,9.199,8.1c0.301,4.8-3.399,8.9-8.1,9.2C66.2,17.417,66.1,17.417,65.9,17.417 M65.9,2.217h-0.4
		c-3.6,0.2-6.4,3.3-6.2,6.9c0.2,3.6,3.3,6.4,6.9,6.2c3.6-0.2,6.399-3.3,6.2-6.9C72.2,4.917,69.3,2.217,65.9,2.217"/>
	<path fill="#74a3c7" style="clip-path:url(#SVGID_2_);" d="M79,32.817H52v-1c0-7.4,6.1-13,13.5-13s13.5,5.6,13.5,13V32.817z M54.9,30.817h21.8
		c-0.5-6-5-9.9-10.9-9.9C59.9,20.917,55.4,24.817,54.9,30.817"/>
	<path fill="#74a3c7" style="clip-path:url(#SVGID_2_);" d="M39.7,73.317c-4.5,0-8.4-3.6-8.6-8.2c-0.3-4.8,3.4-8.899,8.1-9.2
		c4.8-0.3,8.899,3.4,9.2,8.101c0.3,4.8-3.4,8.899-8.101,9.2C40.1,73.317,39.9,73.317,39.7,73.317 M39.7,58.017h-0.4
		c-3.6,0.2-6.4,3.3-6.2,6.899c0.2,3.601,3.3,6.4,6.9,6.2c3.6-0.2,6.4-3.3,6.2-6.899C46.1,60.717,43.2,58.017,39.7,58.017"/>
	<path fill="#74a3c7" style="clip-path:url(#SVGID_2_);" d="M52,88.817H27v-1.2c0-7.399,5.1-13,12.5-13c7.4,0,12.5,5.601,12.5,13V88.817z
		 M28.7,86.817h21.8c-0.5-6-5-9.9-10.9-9.9C33.7,76.917,29.2,80.817,28.7,86.817"/>
	<path fill="#74a3c7" style="clip-path:url(#SVGID_2_);" d="M24.8,78.417C10.3,72.317,1,58.217,1,42.517c0-2.1,0.2-4.3,0.5-6.3l2.1,0.3
		c-0.3,2-0.5,4-0.5,6c0,14.899,8.8,28.2,22.5,34L24.8,78.417z"/>
	<path fill="#74a3c7" style="clip-path:url(#SVGID_2_);" d="M55.3,78.317l-0.8-1.9c13.5-5.8,22.3-19.1,22.3-33.899c0-1.6-0.1-3.3-0.3-4.9l2.1-0.3
		c0.2,1.7,0.301,3.4,0.301,5.2C78.9,58.117,69.6,72.217,55.3,78.317"/>
	<path fill="#74a3c7" style="clip-path:url(#SVGID_2_);" d="M25.5,8.517l-0.8-1.9c4.8-2.1,10-3.1,15.3-3.1c5.1,0,10.1,1,14.9,2.9l-0.9,1.9
		c-4.5-1.8-9.2-2.8-14.1-2.8C34.9,5.617,30.1,6.617,25.5,8.517"/>
</g>
</svg>
