<?xml version="1.0" encoding="iso-8859-1"?>
<!-- Generator: Adobe Illustrator 16.0.4, SVG Export Plug-In . SVG Version: 6.00 Build 0)  -->
<!DOCTYPE svg PUBLIC "-//W3C//DTD SVG 1.1//EN" "http://www.w3.org/Graphics/SVG/1.1/DTD/svg11.dtd">
<svg version="1.1" id="&#x421;&#x43B;&#x43E;&#x439;_1"
	 xmlns="http://www.w3.org/2000/svg" xmlns:xlink="http://www.w3.org/1999/xlink" x="0px" y="0px" width="82.962px"
	 height="71.258px" viewBox="0 0 82.962 71.258" style="enable-background:new 0 0 82.962 71.258;" xml:space="preserve">
<g>
	<defs>
		<rect id="SVGID_1_" width="82.962" height="71.258"/>
	</defs>
	<clipPath id="SVGID_2_">
		<use xlink:href="#SVGID_1_"  style="overflow:visible;"/>
	</clipPath>
	<path fill="#74a3c7" style="clip-path:url(#SVGID_2_);" d="M34.405,70.689c-0.912,0-1.793-0.363-2.428-1.001L1.571,39.283
		c-0.639-0.639-1.004-1.523-1.004-2.429c0-0.906,0.365-1.79,1.003-2.427l31.82-31.82c0.583-0.576,1.332-1.051,2.288-1.452
		c0.956-0.392,1.822-0.585,2.643-0.589H67.26c1.888,0.005,3.428,1.546,3.433,3.434v10.728l10.77,0.001
		c0.516,0,0.934,0.418,0.934,0.932c0,0.515-0.418,0.933-0.934,0.933l-10.77-0.001v16.347c-0.005,0.817-0.199,1.683-0.592,2.644
		c-0.401,0.955-0.875,1.703-1.451,2.285L36.831,69.688c-0.636,0.639-1.518,1.002-2.42,1.002H34.405z M38.294,2.432
		c-0.512,0-1.261,0.176-1.908,0.45c-0.661,0.268-1.325,0.681-1.683,1.05L2.89,35.747c-0.291,0.293-0.452,0.683-0.457,1.101
		c0.005,0.433,0.166,0.823,0.456,1.114L33.296,68.37c0.293,0.292,0.685,0.453,1.106,0.455c0.421-0.002,0.813-0.163,1.107-0.453
		l31.823-31.823c0.362-0.353,0.775-1.016,1.047-1.683c0.278-0.662,0.454-1.423,0.446-1.934l0.001-16.339l-6.348-0.001l-0.093,0.454
		c-0.233,1.151-0.749,2.212-1.503,3.1l-0.643-0.643l-0.802,0.801l0.642,0.645c-1.25,1.065-2.82,1.646-4.48,1.646
		c-1.859,0-3.6-0.721-4.906-2.03c-1.312-1.309-2.033-3.05-2.031-4.903c-0.002-1.853,0.719-3.593,2.03-4.901
		c1.309-1.311,3.048-2.032,4.895-2.032c1.862,0,3.602,0.72,4.911,2.03c0.961,0.961,1.615,2.176,1.888,3.513l0.093,0.454l6.348,0.001
		V3.999c0-0.412-0.163-0.804-0.459-1.104c-0.304-0.3-0.696-0.463-1.107-0.463H38.294z M55.595,10.595
		c-1.354,0.001-2.625,0.528-3.584,1.483c-0.954,0.957-1.48,2.229-1.483,3.583c0.003,1.356,0.529,2.628,1.483,3.583
		c0.959,0.956,2.229,1.482,3.583,1.485c1.354-0.003,2.628-0.53,3.583-1.484c0.525-0.526,0.923-1.165,1.182-1.898l0.265-0.755h-5.032
		c-0.515,0-0.933-0.419-0.933-0.934c0-0.515,0.418-0.933,0.933-0.933h5.03l-0.265-0.755c-0.257-0.73-0.655-1.367-1.18-1.892
		C58.219,11.123,56.947,10.596,55.595,10.595"/>
</g>
</svg>
