<?xml version="1.0" encoding="iso-8859-1"?>
<!-- Generator: Adobe Illustrator 16.0.4, SVG Export Plug-In . SVG Version: 6.00 Build 0)  -->
<!DOCTYPE svg PUBLIC "-//W3C//DTD SVG 1.1//EN" "http://www.w3.org/Graphics/SVG/1.1/DTD/svg11.dtd">
<svg version="1.1" id="&#x421;&#x43B;&#x43E;&#x439;_1"
	 xmlns="http://www.w3.org/2000/svg" xmlns:xlink="http://www.w3.org/1999/xlink" x="0px" y="0px" width="72px" height="42.115px"
	 viewBox="0 0 72 42.115" style="enable-background:new 0 0 72 42.115;" xml:space="preserve">
<g>
	<defs>
		<rect id="SVGID_1_" width="72" height="42.115"/>
	</defs>
	<clipPath id="SVGID_2_">
		<use xlink:href="#SVGID_1_"  style="overflow:visible;"/>
	</clipPath>
	<path fill="#74a3c7" style="clip-path:url(#SVGID_2_);" d="M10.755,0c-0.142,0.034-0.274,0.111-0.374,0.218L0.331,10.362
		c-0.417,0.416-0.058,1.281,0.531,1.279h24.031v8.677H0.675c-0.393,0.041-0.712,0.434-0.671,0.827
		c0.04,0.392,0.434,0.712,0.827,0.671h24.062v8.645H0.675c-0.393,0.041-0.712,0.436-0.671,0.827c0.04,0.393,0.434,0.712,0.827,0.671
		h24.062v9.395c0.001,0.392,0.357,0.749,0.75,0.749h20.785c0.394,0,0.749-0.357,0.749-0.749v-9.395H71.24
		c0.396,0.01,0.76-0.353,0.76-0.749c0-0.396-0.364-0.755-0.76-0.749H47.177v-8.645H71.24c0.396,0.01,0.76-0.354,0.76-0.749
		c0-0.396-0.364-0.755-0.76-0.749H47.177v-8.677h24.032c0.589,0.001,0.948-0.863,0.531-1.279L61.69,0.218
		C61.551,0.08,61.356-0.001,61.159,0H10.755z M11.224,1.498h19.911l-5.867,8.645H2.672L11.224,1.498z M32.977,1.498h6.117
		l5.899,8.645H27.078L32.977,1.498z M40.935,1.498h19.912l8.553,8.645H46.803L40.935,1.498z M26.392,11.641H45.68v28.963H26.392
		V11.641z"/>
	<path fill="#74a3c7" style="clip-path:url(#SVGID_2_);" d="M0.862,40.617c-0.414-0.005-0.753,0.326-0.759,0.74
		c-0.005,0.413,0.326,0.753,0.74,0.758c0.006,0,0.013,0,0.019,0h70.347c0.414,0.005,0.754-0.326,0.759-0.739
		c0.005-0.414-0.326-0.754-0.74-0.759c-0.006,0-0.012,0-0.019,0H0.862z"/>
	<path fill="#74a3c7" style="clip-path:url(#SVGID_2_);" d="M33.227,18.29c-0.021,0.009-0.042,0.02-0.062,0.031c-0.032-0.002-0.063-0.002-0.094,0
		c-0.043,0.007-0.084,0.017-0.125,0.031c-0.095,0.044-0.18,0.108-0.25,0.187c-0.021,0.01-0.042,0.02-0.062,0.032
		c0,0.01,0,0.02,0,0.031c-0.011,0.01-0.021,0.02-0.031,0.031c-0.043,0.067-0.074,0.141-0.094,0.218
		c-0.011,0.021-0.022,0.041-0.031,0.062c-0.014,0.083-0.014,0.167,0,0.25v1.186v5.587h-0.749c-0.423-0.008-0.772,0.321-0.779,0.735
		c-0.008,0.414,0.329,0.755,0.751,0.763c0.009,0,0.019,0,0.028,0h0.749v2.216h-0.687c-0.052-0.006-0.104-0.006-0.156,0
		c-0.413,0.043-0.714,0.413-0.671,0.827c0.043,0.413,0.414,0.714,0.827,0.671h0.687v1.936c-0.006,0.412,0.325,0.753,0.738,0.759
		c0.414,0.006,0.754-0.324,0.76-0.738c0-0.007,0-0.014,0-0.021v-1.936h3.683c0.413,0.005,0.753-0.326,0.759-0.74
		s-0.326-0.753-0.739-0.758c-0.007-0.001-0.013-0.001-0.02,0h-3.683v-2.216h2.746c0.061,0.018,0.124,0.028,0.188,0.031
		c2.366-0.089,4.183-2.238,4.119-4.713c-0.058-2.315-1.778-4.205-3.932-4.401c-0.081-0.024-0.165-0.035-0.25-0.031h-0.218
		c-0.053-0.005-0.104-0.005-0.156,0h-3.09h-0.062C33.29,18.308,33.259,18.296,33.227,18.29L33.227,18.29z M33.976,19.818h2.497
		c0.062,0.008,0.125,0.008,0.187,0c1.513-0.045,2.859,1.234,2.903,2.965c0.043,1.724-1.211,3.097-2.716,3.152h-2.871V20.35V19.818z"
		/>
</g>
</svg>
